<mxfile host="65bd71144e">
    <diagram id="YvHOm95vkBDNaYGhhzcR" name="Page-1">
        <mxGraphModel dx="2549" dy="753" grid="1" gridSize="10" guides="1" tooltips="1" connect="1" arrows="1" fold="1" page="0" pageScale="1" pageWidth="850" pageHeight="1100" background="none" math="0" shadow="0">
            <root>
                <mxCell id="0"/>
                <mxCell id="1" parent="0"/>
                <mxCell id="2" value="Tldraw" style="swimlane;whiteSpace=wrap;html=1;fillColor=#0050ef;fontColor=#ffffff;strokeColor=#001DBC;rounded=0;shadow=0;swimlaneLine=1;glass=0;" vertex="1" parent="1">
                    <mxGeometry x="-480" y="149" width="480" height="200" as="geometry"/>
                </mxCell>
                <mxCell id="18" value="Shape created" style="swimlane;horizontal=0;whiteSpace=wrap;html=1;startSize=60;fillColor=#d80073;fontColor=#ffffff;strokeColor=#A50040;" vertex="1" parent="2">
                    <mxGeometry x="10" y="135" width="220" height="50" as="geometry"/>
                </mxCell>
                <mxCell id="19" value="Attaches ID of currently &lt;br&gt;selected plugin to shape" style="text;html=1;align=center;verticalAlign=middle;resizable=0;points=[];autosize=1;strokeColor=none;fillColor=none;" vertex="1" parent="18">
                    <mxGeometry x="70" y="5" width="150" height="40" as="geometry"/>
                </mxCell>
                <mxCell id="23" value="Shape Collision" style="swimlane;horizontal=0;whiteSpace=wrap;html=1;startSize=60;fillColor=#d80073;fontColor=#ffffff;strokeColor=#A50040;" vertex="1" parent="2">
                    <mxGeometry x="10" y="45" width="460" height="82.5" as="geometry"/>
                </mxCell>
                <mxCell id="24" value="&lt;ul&gt;&lt;li&gt;Tracks all shapes&lt;/li&gt;&lt;li&gt;When collision is detected, retrieves plugin ID from involved shapes&lt;/li&gt;&lt;li&gt;Calls collision event for corresponding plugin (passing both shapes)&lt;/li&gt;&lt;/ul&gt;" style="text;html=1;align=left;verticalAlign=middle;resizable=0;points=[];autosize=1;strokeColor=none;fillColor=none;" vertex="1" parent="23">
                    <mxGeometry x="50" y="-17.5" width="420" height="100" as="geometry"/>
                </mxCell>
                <mxCell id="5" value="Pluginbar" style="swimlane;whiteSpace=wrap;html=1;fillColor=#0050ef;fontColor=#ffffff;strokeColor=#001DBC;" vertex="1" parent="1">
                    <mxGeometry x="-547" y="400" width="120" height="60" as="geometry">
                        <mxRectangle x="40" y="60" width="140" height="30" as="alternateBounds"/>
                    </mxGeometry>
                </mxCell>
                <mxCell id="6" value="&lt;span style=&quot;background-color: initial;&quot;&gt;Loads plugin names from plugin folder&lt;/span&gt;" style="text;html=1;strokeColor=none;fillColor=none;align=center;verticalAlign=middle;whiteSpace=wrap;rounded=0;" vertex="1" parent="5">
                    <mxGeometry x="5" y="30" width="110" height="30" as="geometry"/>
                </mxCell>
                <mxCell id="7" value="Plugin Component" style="swimlane;whiteSpace=wrap;html=1;fillColor=#0050ef;fontColor=#ffffff;strokeColor=#001DBC;" vertex="1" parent="1">
                    <mxGeometry x="-777" y="488" width="230" height="70" as="geometry"/>
                </mxCell>
                <mxCell id="8" value="Displays plugin properties in Pluginbar&lt;br&gt;&lt;div style=&quot;text-align: left;&quot;&gt;&lt;span style=&quot;background-color: initial;&quot;&gt;Dynamically imports plugin module&lt;/span&gt;&lt;/div&gt;" style="text;html=1;align=center;verticalAlign=middle;resizable=0;points=[];autosize=1;strokeColor=none;fillColor=none;" vertex="1" parent="7">
                    <mxGeometry y="20" width="230" height="40" as="geometry"/>
                </mxCell>
                <mxCell id="9" value="" style="endArrow=classic;html=1;exitX=0;exitY=0.25;exitDx=0;exitDy=0;entryX=0.812;entryY=-0.015;entryDx=0;entryDy=0;entryPerimeter=0;" edge="1" parent="1" source="5" target="7">
                    <mxGeometry width="50" height="50" relative="1" as="geometry">
                        <mxPoint x="-1070" y="200" as="sourcePoint"/>
                        <mxPoint x="-1210" y="180" as="targetPoint"/>
                        <Array as="points">
                            <mxPoint x="-590" y="415"/>
                        </Array>
                    </mxGeometry>
                </mxCell>
                <mxCell id="10" value="Creates multiple" style="edgeLabel;html=1;align=center;verticalAlign=middle;resizable=0;points=[];" vertex="1" connectable="0" parent="9">
                    <mxGeometry x="0.2167" y="2" relative="1" as="geometry">
                        <mxPoint x="-14" y="-4" as="offset"/>
                    </mxGeometry>
                </mxCell>
                <mxCell id="12" value="Plugin Store" style="swimlane;whiteSpace=wrap;html=1;fillColor=#60a917;fontColor=#ffffff;strokeColor=#2D7600;" vertex="1" parent="1">
                    <mxGeometry x="-850" y="240" width="200" height="70" as="geometry"/>
                </mxCell>
                <mxCell id="13" value="Holds currently selected plugin&lt;br&gt;Holds all available plugins" style="text;html=1;align=left;verticalAlign=middle;resizable=0;points=[];autosize=1;strokeColor=none;fillColor=none;" vertex="1" parent="12">
                    <mxGeometry x="5" y="30" width="190" height="40" as="geometry"/>
                </mxCell>
                <mxCell id="14" value="" style="endArrow=classic;html=1;entryX=0.541;entryY=1.031;entryDx=0;entryDy=0;exitX=0.146;exitY=-0.035;exitDx=0;exitDy=0;entryPerimeter=0;exitPerimeter=0;" edge="1" parent="1" source="7" target="13">
                    <mxGeometry width="50" height="50" relative="1" as="geometry">
                        <mxPoint x="-1070" y="290" as="sourcePoint"/>
                        <mxPoint x="-1020" y="240" as="targetPoint"/>
                    </mxGeometry>
                </mxCell>
                <mxCell id="15" value="Registers plugin with" style="edgeLabel;html=1;align=center;verticalAlign=middle;resizable=0;points=[];" vertex="1" connectable="0" parent="14">
                    <mxGeometry x="-0.2762" relative="1" as="geometry">
                        <mxPoint x="6" y="4" as="offset"/>
                    </mxGeometry>
                </mxCell>
                <mxCell id="16" value="" style="endArrow=classic;startArrow=classic;html=1;exitX=0.003;exitY=0.34;exitDx=0;exitDy=0;exitPerimeter=0;" edge="1" parent="1" source="18">
                    <mxGeometry width="50" height="50" relative="1" as="geometry">
                        <mxPoint x="-980" y="380" as="sourcePoint"/>
                        <mxPoint x="-650" y="300" as="targetPoint"/>
                    </mxGeometry>
                </mxCell>
                <mxCell id="17" value="Retrieves currently&lt;br&gt;selected plugin id" style="edgeLabel;html=1;align=center;verticalAlign=middle;resizable=0;points=[];" vertex="1" connectable="0" parent="16">
                    <mxGeometry x="0.0885" relative="1" as="geometry">
                        <mxPoint as="offset"/>
                    </mxGeometry>
                </mxCell>
                <mxCell id="20" value="Plugin" style="swimlane;whiteSpace=wrap;html=1;fillColor=#6a00ff;fontColor=#ffffff;strokeColor=#3700CC;" vertex="1" parent="1">
                    <mxGeometry x="-850" width="200" height="70" as="geometry"/>
                </mxCell>
                <mxCell id="22" value="Defines what happens for &lt;br&gt;specific events" style="text;html=1;align=left;verticalAlign=middle;resizable=0;points=[];autosize=1;strokeColor=none;fillColor=none;" vertex="1" parent="20">
                    <mxGeometry x="10" y="30" width="160" height="40" as="geometry"/>
                </mxCell>
                <mxCell id="21" value="Stores multiple" style="endArrow=classic;html=1;entryX=0.5;entryY=1;entryDx=0;entryDy=0;exitX=0.5;exitY=0;exitDx=0;exitDy=0;shadow=0;startArrow=none;startFill=0;" edge="1" parent="1" source="12" target="20">
                    <mxGeometry width="50" height="50" relative="1" as="geometry">
                        <mxPoint x="-750" y="230" as="sourcePoint"/>
                        <mxPoint x="-710" y="190" as="targetPoint"/>
                    </mxGeometry>
                </mxCell>
                <mxCell id="25" value="" style="endArrow=classic;startArrow=classic;html=1;exitX=0.999;exitY=0.133;exitDx=0;exitDy=0;exitPerimeter=0;entryX=0;entryY=0.675;entryDx=0;entryDy=0;entryPerimeter=0;" edge="1" parent="1" source="12" target="23">
                    <mxGeometry width="50" height="50" relative="1" as="geometry">
                        <mxPoint x="-430" y="210" as="sourcePoint"/>
                        <mxPoint x="-380" y="160" as="targetPoint"/>
                    </mxGeometry>
                </mxCell>
                <mxCell id="26" value="Retrieves plugin by ID" style="edgeLabel;html=1;align=center;verticalAlign=middle;resizable=0;points=[];" vertex="1" connectable="0" parent="25">
                    <mxGeometry x="-0.2616" y="1" relative="1" as="geometry">
                        <mxPoint x="14" as="offset"/>
                    </mxGeometry>
                </mxCell>
                <mxCell id="27" value="" style="endArrow=classic;html=1;exitX=-0.001;exitY=0.357;exitDx=0;exitDy=0;exitPerimeter=0;" edge="1" parent="1" source="23">
                    <mxGeometry width="50" height="50" relative="1" as="geometry">
                        <mxPoint x="-430" y="210" as="sourcePoint"/>
                        <mxPoint x="-660" y="70" as="targetPoint"/>
                        <Array as="points">
                            <mxPoint x="-529" y="224"/>
                        </Array>
                    </mxGeometry>
                </mxCell>
                <mxCell id="28" value="Sends events to" style="edgeLabel;html=1;align=center;verticalAlign=middle;resizable=0;points=[];" vertex="1" connectable="0" parent="27">
                    <mxGeometry x="0.1115" y="-1" relative="1" as="geometry">
                        <mxPoint x="14" y="19" as="offset"/>
                    </mxGeometry>
                </mxCell>
                <mxCell id="29" value="" style="endArrow=classic;html=1;exitX=0.997;exitY=0.131;exitDx=0;exitDy=0;exitPerimeter=0;entryX=0;entryY=0.05;entryDx=0;entryDy=0;entryPerimeter=0;" edge="1" parent="1" source="20" target="2">
                    <mxGeometry width="50" height="50" relative="1" as="geometry">
                        <mxPoint x="-460" y="170" as="sourcePoint"/>
                        <mxPoint x="-410" y="120" as="targetPoint"/>
                        <Array as="points">
                            <mxPoint x="-524" y="159"/>
                        </Array>
                    </mxGeometry>
                </mxCell>
                <mxCell id="30" value="Modifies canvas based &lt;br&gt;on custom logic" style="edgeLabel;html=1;align=center;verticalAlign=middle;resizable=0;points=[];" vertex="1" connectable="0" parent="29">
                    <mxGeometry x="-0.3906" y="1" relative="1" as="geometry">
                        <mxPoint x="63" y="35" as="offset"/>
                    </mxGeometry>
                </mxCell>
            </root>
        </mxGraphModel>
    </diagram>
</mxfile>